<?xml version="1.0" encoding="UTF-8"?>
<svg id="Layer_2" data-name="Layer 2" xmlns="http://www.w3.org/2000/svg" viewBox="0 0 109.39 59.08">
  <defs>
    <style>
      .cls-1 {
        fill: #f6f6cb;
      }
    </style>
  </defs>
  <g id="Layer_1-2" data-name="Layer 1">
    <g>
      <polygon class="cls-1" points="47.25 1.8 47.75 1.8 47.75 7.97 47.24 7.97 47.24 9.77 50.08 9.77 50.08 7.97 49.56 7.97 49.56 1.8 50.07 1.8 50.07 2.59 51.87 2.59 51.87 0 45.45 0 45.45 2.59 47.25 2.59 47.25 1.8"/>
      <polygon class="cls-1" points="55.33 7.97 54.81 7.97 54.81 5.79 56.85 5.79 56.85 7.97 56.34 7.97 56.34 9.77 59.18 9.77 59.18 7.97 58.66 7.97 58.66 1.8 59.18 1.8 59.18 0 56.34 0 56.34 1.8 56.85 1.8 56.85 3.98 54.81 3.98 54.81 1.8 55.33 1.8 55.33 0 52.49 0 52.49 1.8 53 1.8 53 7.97 52.49 7.97 52.49 9.77 55.33 9.77 55.33 7.97"/>
      <polygon class="cls-1" points="65.5 7.18 63.7 7.18 63.7 7.97 62.12 7.97 62.12 5.79 64.59 5.79 64.59 3.98 62.12 3.98 62.12 1.8 63.7 1.8 63.7 2.59 65.5 2.59 65.5 0 59.8 0 59.8 1.8 60.31 1.8 60.31 7.97 59.8 7.97 59.8 9.77 65.5 9.77 65.5 7.18"/>
      <path class="cls-1" d="m19.47,18.15c.46-.13.92-.25,1.37-.37v-4.17c-2.18.58-4.36,1.21-6.52,1.9v4.17c.33-.1.65-.21.98-.31-.36,2.57-.72,5.15-1.08,7.73-.75-3.61-1.49-7.22-2.23-10.82-1.13.38-2.25.78-3.37,1.2-.74,4.12-1.48,8.25-2.22,12.39-.35-2.32-.71-4.64-1.06-6.96.32-.13.65-.26.97-.39v-4.17c-2.12.83-4.23,1.72-6.32,2.66v4.17c.44-.2.88-.39,1.32-.59.98,5.71,1.96,11.43,2.94,17.17,1.37-.56,2.74-1.1,4.12-1.61.64-3.49,1.28-6.98,1.92-10.46.64,3.03,1.28,6.06,1.92,9.1,1.39-.47,2.79-.92,4.2-1.34,1.02-6.44,2.03-12.88,3.05-19.29Z"/>
      <path class="cls-1" d="m34.86,27.6c-1.34.2-2.68.43-4.02.67v1.74c-1.17.21-2.34.44-3.51.69v-4.79c1.82-.38,3.65-.73,5.48-1.03v-3.98c-1.83.31-3.66.65-5.48,1.03v-4.79c1.17-.25,2.33-.47,3.51-.69v1.74c1.34-.24,2.68-.47,4.02-.67v-5.71c-4.24.64-8.46,1.49-12.64,2.54v3.97c.38-.1.76-.19,1.14-.28v13.56c-.38.09-.76.19-1.14.28v3.97c4.18-1.05,8.4-1.9,12.64-2.54v-5.71Z"/>
      <path class="cls-1" d="m48.41,26.52c-1.29.06-2.58.14-3.87.24v1.66c-1.13.09-2.26.19-3.39.3v-4.57c1.76-.18,3.53-.33,5.29-.44v-3.8c-1.77.11-3.53.25-5.29.44v-4.57c1.13-.12,2.26-.22,3.39-.3v1.66c1.29-.1,2.58-.18,3.87-.24v-5.45c-4.08.19-8.16.57-12.22,1.14,0,1.26,0,2.53,0,3.79.37-.05.73-.1,1.1-.15v12.95c-.37.05-.73.1-1.1.15,0,1.26,0,2.53,0,3.79,4.06-.57,8.13-.95,12.22-1.14v-5.45Z"/>
      <path class="cls-1" d="m56.6,23.68c.77,1.47,1.54,2.94,2.31,4.42-.3,0-.6-.02-.9-.03v3.79c2.19.05,4.38.16,6.57.33,0-1.26,0-2.53,0-3.79-.43-.03-.86-.06-1.29-.09-1.36-2.64-2.72-5.25-4.07-7.85,1.42-1.72,2.84-3.42,4.26-5.09.37.02.74.05,1.11.08,0-1.26,0-2.53,0-3.79-2.19-.16-4.38-.27-6.57-.33v3.79c.18,0,.36,0,.53.01-1.27,1.54-2.55,3.11-3.82,4.69v-4.74c.37,0,.74,0,1.11,0v-3.79c-2.03-.02-4.07.01-6.1.09v3.79c.37-.01.74-.03,1.11-.04,0,4.32,0,8.63,0,12.95-.37.01-.74.02-1.11.04v3.79c2.03-.08,4.06-.11,6.1-.09v-3.79c-.37,0-.74,0-1.11,0v-2.03c.62-.78,1.25-1.55,1.87-2.33Z"/>
      <path class="cls-1" d="m78.08,28.44c-1.28-.23-2.56-.44-3.84-.63v1.66c-1.12-.17-2.25-.32-3.37-.46v-4.57c1.76.22,3.52.47,5.27.75v-3.8c-1.75-.29-3.51-.54-5.27-.75v-4.57c1.13.14,2.25.29,3.37.46v1.66c1.28.19,2.56.4,3.84.63v-5.45c-4.04-.72-8.1-1.25-12.18-1.6v3.79c.37.03.74.06,1.11.1v12.95c-.37-.03-.74-.07-1.11-.1v3.79c4.08.34,8.14.88,12.18,1.6v-5.45Z"/>
      <path class="cls-1" d="m85.72,31.52c-.38-.09-.77-.18-1.15-.27v-7.29c1.45,4.09,2.9,8.2,4.34,12.34,1.41.38,2.82.78,4.23,1.2v-17.53c.38.11.76.23,1.14.35v-3.97c-2.05-.64-4.12-1.23-6.2-1.77v3.97c.38.1.76.2,1.15.3v7.31c-1.45-4.15-2.9-8.27-4.35-12.37-1.8-.42-3.61-.8-5.43-1.15v3.97c.38.07.76.15,1.15.22v13.56c-.39-.08-.77-.15-1.16-.22v3.97c2.1.4,4.2.85,6.29,1.35v-3.97Z"/>
      <path class="cls-1" d="m109.39,23.39c0,5.94,0,11.88,0,17.83-.86.4-1.72.82-2.59,1.24-3.67-1.56-7.39-2.95-11.15-4.17v-4.17c.39.13.78.26,1.17.39v-14.25c-.39-.13-.78-.26-1.17-.39v-4.17c1.77.57,3.52,1.18,5.27,1.83v1.18c.43-.23.87-.46,1.3-.69,1.54.59,3.06,1.21,4.58,1.85.87,1.16,1.73,2.34,2.59,3.52Zm-4,.06c-1.48-.61-2.97-1.2-4.47-1.75v14.25c1.5.56,2.99,1.14,4.47,1.75,0-4.75,0-9.5,0-14.25Z"/>
      <path class="cls-1" d="m28.37,41.16c.32-.06.63-.13.95-.19v-3.29c-1.43.28-2.85.58-4.27.9-.96,2.26-1.92,4.53-2.87,6.81-.95-1.8-1.9-3.59-2.85-5.37-1.41.39-2.81.8-4.2,1.23v3.29c.31-.1.63-.19.94-.29,0,3.74,0,7.49,0,11.23-.33.1-.65.2-.97.3v3.29c1.71-.53,3.42-1.03,5.14-1.49v-3.29c-.3.08-.6.16-.9.25v-6.74c.95,1.78,1.9,3.57,2.85,5.37.96-2.28,1.91-4.55,2.87-6.81v6.74c-.3.07-.61.14-.91.21v3.29c1.73-.41,3.47-.78,5.21-1.12v-3.29c-.33.06-.66.13-.98.19v-11.23Z"/>
      <path class="cls-1" d="m41.96,50.37c.3-.03.61-.06.91-.08,0,1.1,0,2.19,0,3.29-1.76.16-3.52.35-5.28.58,0-1.1,0-2.19,0-3.29.31-.04.63-.08.95-.12-.1-.47-.19-.94-.29-1.4-1.07.13-2.14.28-3.2.44-.1.49-.19.99-.29,1.48.32-.05.64-.1.97-.14v3.29c-1.75.25-3.5.54-5.25.86v-3.29c.29-.05.59-.11.88-.16.98-5.01,1.96-10.02,2.94-15.01,1.56-.24,3.13-.46,4.7-.64.98,4.72,1.97,9.46,2.96,14.2Zm-4.37-4.23c-.31-1.48-.62-2.96-.93-4.44-.31,1.56-.61,3.13-.92,4.7.62-.09,1.24-.17,1.85-.25Z"/>
      <path class="cls-1" d="m54.51,49.76c.44,0,.87,0,1.31,0v3.29c-1.2-.01-2.4,0-3.61.02-.95-2.4-1.91-4.79-2.86-7.17-.33.01-.66.03-1,.04,0,1.32,0,2.64,0,3.97.32-.02.64-.03.96-.04,0,1.1,0,2.19,0,3.29-1.77.07-3.53.18-5.29.32v-3.29c.32-.03.64-.05.96-.07v-11.23c-.32.02-.64.05-.96.07v-3.29c1.44-.12,2.89-.21,4.33-.28,0,.31,0,.62,0,.93.36-.33.73-.65,1.09-.98,1.21-.05,2.41-.08,3.62-.09.72.61,1.43,1.23,2.15,1.86v6.54c-.77.7-1.53,1.4-2.3,2.11.53,1.33,1.07,2.66,1.6,4Zm-2.67-11.2c-1.16.03-2.33.07-3.49.12,0,1.32,0,2.64,0,3.97,1.16-.06,2.33-.1,3.49-.12v-3.97Z"/>
      <path class="cls-1" d="m64.14,38.86c.15.01.31.02.46.03-1.1,1.29-2.21,2.59-3.31,3.91v-4.11c.32.02.64.03.96.05v-3.29c-1.76-.1-3.52-.17-5.29-.2v3.29c.32,0,.64.01.96.02v11.23c-.32,0-.64-.01-.96-.02v3.29c1.76.03,3.52.1,5.29.2v-3.29c-.32-.02-.64-.04-.96-.05v-1.76c.54-.65,1.08-1.3,1.62-1.94.67,1.3,1.34,2.61,2,3.92-.26-.02-.52-.04-.78-.06,0,1.1,0,2.19,0,3.29,1.9.14,3.79.31,5.69.53v-3.29c-.37-.04-.75-.08-1.12-.12-1.17-2.33-2.35-4.65-3.53-6.96,1.23-1.44,2.46-2.86,3.69-4.26.32.03.64.07.96.11v-3.29c-1.89-.22-3.79-.39-5.69-.53,0,1.1,0,2.19,0,3.29Z"/>
      <path class="cls-1" d="m70.97,39.53c.32.04.64.08.96.12v11.23c-.32-.04-.64-.08-.96-.12v3.29c3.52.43,7.04,1.01,10.52,1.73v-4.73c-1.1-.23-2.21-.44-3.32-.64v1.44c-.97-.17-1.94-.34-2.91-.49v-3.97c1.52.24,3.04.5,4.55.79v-3.3c-1.51-.29-3.03-.56-4.55-.79v-3.97c.97.15,1.94.32,2.91.49v1.44c1.11.2,2.21.41,3.32.64v-4.73c-3.49-.72-7-1.29-10.52-1.73v3.29Z"/>
      <path class="cls-1" d="m82.62,42.93c1.1.24,2.2.49,3.3.75v-1.44c.31.07.61.15.92.23v11.23c-.31-.08-.63-.16-.94-.23v3.29c1.73.42,3.45.87,5.17,1.36,0-1.1,0-2.19,0-3.29-.31-.09-.62-.18-.94-.26v-11.23c.3.08.61.17.91.26v1.44c1.09.31,2.17.63,3.26.97v-4.73c-3.85-1.2-7.75-2.23-11.68-3.07v4.73Z"/>
    </g>
  </g>
</svg>